<svg xmlns="http://www.w3.org/2000/svg" width="26" height="26" viewBox="0 0 26 26" fill="none">
<path d="M13.0139 1.33789C6.57313 1.33405 1.3487 6.55222 1.34485 12.993C1.34101 19.4338 6.55918 24.6583 13 24.6621C16.0943 24.6672 19.0632 23.4392 21.2498 21.2498C23.4373 19.0642 24.6672 16.0992 24.6691 13.007C24.6729 6.56617 19.4547 1.34174 13.0139 1.33789ZM13.0143 23.4954C7.21778 23.4994 2.51565 18.8036 2.51166 13.0071C2.50774 7.21068 7.20353 2.50848 13 2.50456C15.7849 2.49957 18.457 3.60458 20.4249 5.57503C22.3936 7.54186 23.5007 10.21 23.5025 12.9929C23.5065 18.7893 18.8107 23.4915 13.0143 23.4954ZM13.8248 13L17.5367 9.28809C17.759 9.06129 17.759 8.69835 17.5367 8.47155C17.3112 8.24148 16.942 8.23777 16.7119 8.46322L13 12.1751L9.28807 8.46329C9.06127 8.24105 8.69833 8.24105 8.47153 8.46329C8.24146 8.68873 8.23775 9.05802 8.4632 9.28809L12.1751 13L8.4632 16.7119C8.35382 16.8213 8.29244 16.9696 8.29237 17.1243C8.29237 17.4464 8.55349 17.7076 8.87563 17.7077C9.03037 17.7079 9.17883 17.6464 9.28807 17.5368L13 13.8249L16.7119 17.5368C16.8211 17.6464 16.9696 17.7079 17.1243 17.7077C17.279 17.7076 17.4272 17.6462 17.5366 17.5369C17.7645 17.3091 17.7645 16.9398 17.5367 16.7119L13.8248 13Z" fill="white" stroke="white"/>
</svg>