<svg xmlns="http://www.w3.org/2000/svg" width="36" height="36" viewBox="0 0 36 36" fill="none">
<path d="M18 35.9657C27.9411 35.9657 36 27.9145 36 17.9829C36 8.0512 27.9411 0 18 0C8.05888 0 0 8.0512 0 17.9829C0 27.9145 8.05888 35.9657 18 35.9657Z" fill="#F5F5F5"/>
<path d="M18.0002 36.0012C22.2563 36.0077 26.3747 34.495 29.6131 31.7359C27.8028 26.6174 24.1824 19.6904 18.0002 19.6904C11.5448 19.6904 7.89013 26.7198 6.14819 31.5311C9.42574 34.4074 13.6377 35.996 18.0002 36.0012Z" fill="#969696"/>
<path d="M18.0001 23.8182C22.0935 23.8182 25.4119 20.503 25.4119 16.4135C25.4119 12.324 22.0935 9.00879 18.0001 9.00879C13.9067 9.00879 10.5884 12.324 10.5884 16.4135C10.5884 20.503 13.9067 23.8182 18.0001 23.8182Z" fill="#747474"/>
</svg>